<?xml version="1.0" encoding="utf-8"?>
<svg viewBox="0 -33.67 260.8 260.8" width="800px" height="800px" xmlns="http://www.w3.org/2000/svg">
  <defs>
    <style>.a{fill:#ffffff;}.b{fill:#c6c6c6;}.c{fill:#211715;}</style>
  </defs>
  <g transform="matrix(0.816806972026825, 0, 0, 0.9305470585823059, -26.378673553466797, 13.684139251708984)" style="">
    <g id="g13" transform="matrix(0.443711, 0, 0, 0.464563, 44.47813, -30.014591)" style="">
      <path id="path1" style="fill:#fff6d5;stroke-width:1.22327" d="M 397.63742,244.5306 C 436.7934,383.98549 342.26658,443.59233 262.84378,448.45491 183.88653,453.28899 99.696955,390.79414 95.213405,283.49297 90.729852,176.1918 167.68161,50.072993 246.60722,44.745944 325.53282,39.41889 418.18466,157.96347 422.67085,265.26446 L 254.72788,254.1665 Z"/>
      <path style="fill:#003b61;stroke-width:0.853737;fill-opacity:1" d="m 255.71858,25.49255 c 2.93349,-8.422933 -14.39209,-9.755404 -22.81585,-16.224545 8.96028,1.526595 17.89764,2.313192 26.9943,8.246949 C 263.81539,6.132274 279.91635,1.07065 292.85485,-5.6318416 282.70182,6.095557 276.18907,11.148768 268.84547,25.855948 Z" id="path39"/>
      <path d="M 250.525 16.653 C 199.183 17.407 164.108 33.309 134.876 62.822 C 106.777 91.013 97.155 127.885 91.283 174.634 C 91.283 174.634 84.787 213.18 93.918 229.262 C 79.639 246.845 -25.109 288.147 -24.592 323.359 C -13.253 357.018 86.302 316.207 96.767 360.759 C 105.744 398.603 122.83 413.175 157.884 433.975 C 130.328 436.811 107.231 457.487 107.445 472.07 C 142.143 492.757 146.312 486.944 181.732 486.423 C 214.375 485.943 227.761 478.009 227.521 461.678 C 227.506 460.64 227.73 459.807 227.48 458.892 C 237.31 460.259 247.018 461.391 257.062 461.243 C 267.106 461.096 276.777 459.679 286.562 458.023 C 286.339 458.945 286.588 459.772 286.603 460.809 C 286.843 477.14 300.457 484.678 333.13 484.197 C 368.55 483.677 368.294 490.44 402.369 468.742 C 402.154 454.159 383.052 433.095 355.425 431.07 C 389.852 409.249 406.473 394.182 414.334 356.09 C 423.484 311.249 597.163 292.756 607.507 258.778 C 606.99 223.566 428.135 241.721 413.346 224.566 C 421.97 208.223 414.374 169.884 414.374 169.884 C 407.1 123.328 396.427 86.754 367.512 59.401 C 337.425 30.761 301.897 15.897 250.525 16.653 Z M 227.892 66.879 C 243.747 70.115 237.476 76.296 239.522 90.461 C 257.426 214.413 261.471 69.444 273.666 67.244 C 366.607 70.176 402.934 196.233 380.836 222.587 C 380.836 222.587 407.069 282.194 394.513 324.535 C 376.381 385.486 321.187 443.217 255.753 444.179 C 190.32 445.141 131.653 399.808 111.707 339.417 C 97.942 297.463 129.199 229.102 129.199 229.102 C 106.306 203.41 135.048 72.543 227.892 66.879 Z" style="fill:#003b61;stroke-width:29.5934;fill-opacity:1" id="path5"/>
      <g id="g3">
        <g id="g2">
          <g id="g4" transform="matrix(2.9502434,-0.11225511,0.121041,2.7360969,-54.791259,-92.398268)">
            <path style="fill:#000000;stroke-width:0.633562" id="path3" d="m 124.98244,71.119575 a 7.1978536,8.815156 0 0 1 -6.91906,9.143709 7.1978536,8.815156 0 0 1 -7.46624,-8.473569 7.1978536,8.815156 0 0 1 6.91881,-9.143991 7.1978536,8.815156 0 0 1 7.46648,8.473264 l -7.19264,0.33551 z" transform="rotate(1.9495519)"/>
            <path style="fill:#f9f9f9;stroke-width:0.291031" id="path4" d="m 116.31254,67.772307 a 2.3727436,2.3727436 0 0 1 -2.28084,2.461179 2.3727436,2.3727436 0 0 1 -2.46121,-2.2808 2.3727436,2.3727436 0 0 1 2.28075,-2.461255 2.3727436,2.3727436 0 0 1 2.4613,2.280718 l -2.37103,0.09031 z" transform="rotate(1.9495519)"/>
          </g>
          <g id="g9" transform="matrix(-2.9502434,-0.11225511,-0.121041,2.7360969,561.71958,-93.456109)">
            <path style="fill:#000000;stroke-width:0.633562" id="path6" d="m 124.98244,71.119575 a 7.1978536,8.815156 0 0 1 -6.91906,9.143709 7.1978536,8.815156 0 0 1 -7.46624,-8.473569 7.1978536,8.815156 0 0 1 6.91881,-9.143991 7.1978536,8.815156 0 0 1 7.46648,8.473264 l -7.19264,0.33551 z" transform="rotate(1.9495519)"/>
            <path style="fill:#f9f9f9;stroke-width:0.291031" id="path9" d="m 116.31254,67.772307 a 2.3727436,2.3727436 0 0 1 -2.28084,2.461179 2.3727436,2.3727436 0 0 1 -2.46121,-2.2808 2.3727436,2.3727436 0 0 1 2.28075,-2.461255 2.3727436,2.3727436 0 0 1 2.4613,2.280718 l -2.37103,0.09031 z" transform="rotate(1.9495519)"/>
          </g>
        </g>
        <g id="g12" transform="matrix(3.73286,-0.11640455,0.15314977,2.837235,132.67218,-22.647879)">
          <path id="path11" style="fill:#ffd42a;stroke-width:0.320159" d="m 38.435193,58.876405 c 0.278181,2.773404 -3.359727,6.631373 -8.183946,6.901442 -4.82422,0.27007 -9.007951,-3.150032 -9.286284,-5.923427 -0.278333,-2.773395 3.406775,-5.240659 8.230977,-5.510821 4.824203,-0.270165 8.960729,1.759084 9.239227,4.532472 l -8.735092,0.489257 z"/>
          <path id="path12" style="fill:#2b0000;stroke-width:0.104073" d="m 38.176361,59.654117 c 0.190772,0.292455 -3.498928,0.81919 -8.247385,0.992195 -4.748498,0.172976 -8.757682,-0.07323 -8.948551,-0.365676 -0.19102,-0.292447 3.503724,-0.669783 8.25218,-0.842799 4.748471,-0.172976 8.752707,-0.0762 8.943741,0.216246 l -8.597953,0.313289 z"/>
        </g>
      </g>
    </g>
  </g>
  <g transform="matrix(1, 0, 0, 1, 267.6160888671875, -99.7364501953125)">
    <g transform="matrix(0.638117, 0.045988, -0.047611, 0.660632, -137.445456, 91.948687)" style="">
      <g>
        <g>
          <path class="a" d="M 55.177 81.987 C 53.974 74.034 52.852 66.665 52.001 61.048 C 51.558 58.15 53.777 55.434 56.953 54.986 C 81.551 51.506 151.757 41.575 172.356 38.661 C 175.533 38.206 178.469 40.193 178.904 43.095 C 181.683 61.412 186.643 94.088 189.755 114.611 C 196.769 121.921 203.781 129.231 210.792 136.543 C 211.527 137.31 212 138.259 212.153 139.274 C 212.255 139.949 212.359 140.635 212.458 141.29 C 212.784 143.463 211.119 145.496 208.738 145.83 L 53.884 167.691 C 51.505 168.028 49.309 166.542 48.974 164.371 C 48.849 163.542 48.728 162.792 48.587 161.878 C 48.426 160.84 48.604 159.776 49.102 158.82 C 53.684 150.04 58.262 141.261 62.837 132.484 C 61.32 122.481 58.005 100.631 55.177 81.987 Z" style="fill: rgb(142, 142, 142);"/>
        </g>
        <path class="a" d="M 166.094 43.829 C 135.985 48.193 74.133 57.161 55.384 59.878 C 57.785 78.758 60.643 101.201 63.225 121.497 L 63.872 126.601 C 85.351 123.486 164.182 112.056 185.024 109.037 C 182.429 88.62 178.719 59.462 176.538 42.317 L 166.094 43.829 Z" style="fill: rgb(0, 17, 33);"/>
        <path class="b" d="M 194.115 122.904 C 191.847 120.336 189.6 117.79 188.073 116.059 L 71.076 132.576 C 69.275 136.675 65.513 145.275 63.478 149.835 L 200.78 130.452 C 199.163 128.624 196.627 125.747 194.115 122.904 Z" style=""/>
        <path class="a" d="M 106.424 147.942 C 106.125 150.75 105.758 154.29 105.578 156.383 C 114.99 155.055 148.138 150.375 159.231 148.809 C 157.956 145.681 155.129 139.113 154.399 137.43 C 154.399 137.43 154.334 137.281 154.229 137.027 L 106.886 143.71 L 106.837 144.145 C 106.761 144.824 106.605 146.249 106.424 147.942 Z" style=""/>
        <path class="c" d="M 159.39 147.378 L 105.684 155.553 C 104.959 155.663 104.235 155.745 103.507 155.884 C 103.475 155.889 103.444 155.893 103.414 155.899 C 102.643 156.016 102.414 158.205 103.185 158.088 L 156.891 149.912 C 157.616 149.801 158.341 149.721 159.068 149.581 C 159.1 149.576 159.131 149.571 159.162 149.567 C 159.931 149.45 160.161 147.26 159.391 147.377 L 159.39 147.378 Z" style=""/>
        <path class="c" d="M 195.484 121.97 C 193.469 119.688 191.455 117.407 189.442 115.125 C 189.067 114.727 188.464 114.535 187.856 114.621 L 85.296 129.1 C 80.558 129.768 75.784 130.332 71.063 131.109 C 70.992 131.119 70.927 131.128 70.858 131.138 C 70.25 131.223 69.727 131.573 69.488 132.059 C 66.96 137.814 64.453 143.573 61.89 149.319 C 61.395 150.368 62.384 151.439 63.696 151.273 L 195.397 132.681 C 197.186 132.428 198.985 132.213 200.768 131.922 C 200.844 131.912 200.921 131.901 200.997 131.89 C 202.303 131.686 202.934 130.387 202.149 129.518 C 199.929 127.001 197.707 124.485 195.484 121.97 C 194.18 120.495 191.441 122.362 192.746 123.838 C 194.968 126.354 197.19 128.871 199.411 131.387 L 200.562 129.015 L 68.861 147.607 C 67.082 147.858 65.254 148.027 63.49 148.365 C 63.415 148.38 63.337 148.387 63.261 148.398 L 65.066 150.353 C 67.629 144.607 70.136 138.848 72.664 133.093 L 71.294 134.013 L 183.495 118.174 C 185.014 117.959 186.58 117.819 188.085 117.526 C 188.153 117.513 188.222 117.506 188.291 117.497 L 186.704 116.994 C 188.716 119.276 190.73 121.558 192.746 123.838 C 194.049 125.316 196.788 123.446 195.484 121.97 Z" style=""/>
        <path class="c" d="M 107.287 156.528 C 107.642 152.448 108.093 148.368 108.546 144.291 C 108.66 143.495 108.015 142.79 107.082 142.691 C 106.141 142.618 105.272 143.195 105.127 143.993 C 104.675 148.07 104.224 152.149 103.868 156.231 C 103.756 157.026 104.401 157.73 105.332 157.83 C 106.273 157.904 107.143 157.326 107.287 156.528 Z" style=""/>
        <path class="c" d="M 152.806 138.042 C 154.447 141.825 156.079 145.611 157.637 149.42 C 158.149 150.438 159.796 150.562 160.603 149.642 C 160.978 149.216 161.061 148.662 160.824 148.19 C 159.267 144.381 157.634 140.594 155.992 136.812 C 155.479 135.794 153.832 135.671 153.026 136.59 C 152.651 137.016 152.568 137.571 152.806 138.042 Z" style=""/>
        <path class="c" d="M 164.733 41.371 L 143.84 44.092 L 118.998 47.326 L 93.575 50.638 L 70.94 53.583 L 54.53 55.719 L 53.046 55.912 C 52.106 56.046 51.461 56.832 51.587 57.684 C 53.232 67.667 54.88 77.65 56.527 87.634 C 58.249 98.058 59.969 108.481 61.686 118.908 C 62.114 121.495 62.539 124.084 62.965 126.671 C 63.116 127.52 63.99 128.107 64.932 127.997 L 83.443 125.587 L 109.802 122.154 L 139.207 118.323 L 166.054 114.827 L 185.549 112.289 L 187.157 112.081 C 188.095 111.945 188.741 111.161 188.615 110.309 L 184.075 82.782 C 182.527 73.402 180.982 64.021 179.434 54.642 L 177.239 41.324 C 177.085 40.475 176.211 39.887 175.268 39.998 L 164.733 41.371 C 162.528 41.657 163.034 44.753 165.242 44.467 L 175.777 43.098 L 173.809 41.773 C 175.19 50.143 176.569 58.514 177.95 66.885 C 179.535 76.489 181.118 86.093 182.701 95.695 C 183.528 100.717 184.355 105.737 185.186 110.758 L 186.644 108.987 L 168.434 111.359 L 142.231 114.771 L 112.835 118.6 L 85.85 122.113 L 66.073 124.69 L 64.425 124.904 L 66.393 126.231 C 65.222 119.168 64.059 112.103 62.899 105.041 L 57.746 73.796 C 56.835 68.277 55.925 62.76 55.016 57.241 L 53.556 59.013 L 69.046 56.991 L 91.108 54.118 L 116.373 50.829 L 141.469 47.56 L 162.932 44.766 L 165.246 44.465 C 167.448 44.181 166.943 41.084 164.733 41.371 Z" style="fill: rgb(145, 143, 143);"/>
      </g>
    </g>
  </g>
</svg>